<svg width="20" height="20" viewBox="0 0 20 20" fill="none" xmlns="http://www.w3.org/2000/svg">
<g clip-path="url(#clip0_35_145)">
<path d="M18.4583 1.54173C17.4642 0.547541 16.1423 0 14.7364 0C13.3304 0 12.0086 0.547541 11.0145 1.54173L6.86194 5.69425L7.73768 6.56999L11.8902 2.41747C12.6504 1.65724 13.6612 1.2385 14.7364 1.2385C15.8115 1.2385 16.8223 1.65724 17.5826 2.41747C18.3428 3.1777 18.7615 4.18848 18.7615 5.26362C18.7615 6.33881 18.3428 7.34959 17.5826 8.10982L13.43 12.2623L14.3058 13.1381L18.4583 8.98557C19.4525 7.99142 20 6.66957 20 5.26362C20 3.85768 19.4525 2.53587 18.4583 1.54173Z" fill="white"/>
<path d="M8.10982 17.5826C7.34959 18.3428 6.33881 18.7615 5.26367 18.7615C4.18852 18.7615 3.17774 18.3428 2.41747 17.5826C1.6572 16.8223 1.2385 15.8115 1.2385 14.7364C1.2385 13.6612 1.6572 12.6504 2.41743 11.8902L6.56995 7.73768L5.69421 6.86194L1.54168 11.0145C0.547541 12.0086 0 13.3304 0 14.7364C0 16.1424 0.547541 17.4642 1.54168 18.4583C2.53587 19.4525 3.85768 20 5.26362 20C6.66957 20 7.99142 19.4525 8.98557 18.4583L13.1381 14.3058L12.2623 13.43L8.10982 17.5826Z" fill="white"/>
<path d="M13.2804 5.84375L14.1561 6.71949L6.71962 14.156L5.84387 13.2802L13.2804 5.84375Z" fill="white"/>
</g>
<defs>
<clipPath id="clip0_35_145">
<rect width="20" height="20" fill="white"/>
</clipPath>
</defs>
</svg>
