<svg width="17" height="17" viewBox="0 0 17 17" fill="none" xmlns="http://www.w3.org/2000/svg">
<path d="M16.0452 15.586L11.3828 10.9203C12.302 9.81799 12.8548 8.40929 12.8548 6.87071C12.8548 3.36062 9.97413 0.506592 6.43073 0.506592C2.88733 0.506592 0 3.36395 0 6.87404C0 10.3841 2.88067 13.2382 6.42407 13.2382C7.92935 13.2382 9.31473 12.722 10.4137 11.8594L15.0927 16.5384C15.3658 16.8115 15.7721 16.8115 16.0452 16.5384C16.3183 16.2654 16.3183 15.8591 16.0452 15.586ZM1.36541 6.87404C1.36541 4.11659 3.63664 1.87533 6.42407 1.87533C9.2115 1.87533 11.4827 4.11659 11.4827 6.87404C11.4827 9.6315 9.2115 11.8728 6.42407 11.8728C3.63664 11.8728 1.36541 9.62817 1.36541 6.87404Z" fill="white" fill-opacity="0.7"/>
</svg>
