<svg width="64" height="63" viewBox="0 0 64 63" fill="none" xmlns="http://www.w3.org/2000/svg">
<g clip-path="url(#clip0_67_398)">
<path fill-rule="evenodd" clip-rule="evenodd" d="M32 1.78782e-06C24.3993 -0.00254956 17.046 2.7257 11.2564 7.69628C5.46684 12.6669 1.61913 19.5552 0.402171 27.128C-0.814789 34.7008 0.678466 42.4636 4.61459 49.0265C8.55071 55.5894 14.6727 60.5239 21.8844 62.9465C23.4741 63.246 24.0675 62.2459 24.0675 61.3901C24.0675 60.6199 24.041 58.0794 24.0251 55.3784C15.123 57.3306 13.2472 51.5703 13.2472 51.5703C11.79 47.8263 9.69164 46.8422 9.69164 46.8422C6.78785 44.8365 9.9089 44.8793 9.9089 44.8793C13.1253 45.1093 14.8157 48.206 14.8157 48.206C17.6718 53.1427 22.303 51.72 24.1258 50.8803C24.4173 48.7944 25.2439 47.3717 26.1606 46.5641C19.076 45.7564 11.578 42.9859 11.578 30.6095C11.5305 27.3949 12.7129 24.2857 14.8793 21.9289C14.5454 21.1159 13.4486 17.8319 15.1866 13.3713C15.1866 13.3713 17.8731 12.5048 23.988 16.682C29.2348 15.2343 34.7704 15.2343 40.0172 16.682C46.1003 12.5262 48.8081 13.3713 48.8081 13.3713C50.5461 17.8212 49.4545 21.1052 49.1207 21.9289C51.2811 24.2843 52.4595 27.3893 52.4113 30.5988C52.4113 43.0073 44.9293 45.735 37.8023 46.5373C38.9468 47.5375 39.9695 49.5057 39.9695 52.5169C39.9695 56.8385 39.9377 60.3204 39.9377 61.3794C39.9377 62.2405 40.51 63.246 42.1315 62.9305C49.3327 60.4987 55.4426 55.5614 59.369 49.0008C63.2954 42.4403 64.7826 34.6842 63.5646 27.1188C62.3466 19.5534 58.5028 12.6717 52.7204 7.70363C46.9379 2.7356 39.5936 0.0050524 32 1.78782e-06Z" fill="white"/>
<path d="M12.1185 46.3716C12.0496 46.532 11.8006 46.5802 11.5886 46.4732C11.3767 46.3662 11.223 46.1469 11.2972 45.9865C11.3714 45.826 11.6204 45.7779 11.8271 45.8849C12.0337 45.9918 12.1927 46.2111 12.1132 46.3716H12.1185Z" fill="white"/>
<path d="M13.4168 47.8318C13.2631 47.9763 12.9663 47.9067 12.7597 47.6821C12.6631 47.6032 12.6 47.4901 12.5832 47.3658C12.5665 47.2416 12.5974 47.1156 12.6696 47.0135C12.8286 46.8691 13.1147 46.9387 13.3267 47.1633C13.5386 47.3879 13.5757 47.6981 13.4168 47.8318Z" fill="white"/>
<path d="M14.6779 49.6928C14.4818 49.8319 14.148 49.6928 13.9626 49.4147C13.7771 49.1366 13.7665 48.7836 13.9626 48.6445C14.1586 48.5054 14.4924 48.6445 14.6779 48.9173C14.8634 49.1901 14.874 49.5538 14.6779 49.6928Z" fill="white"/>
<path d="M16.4265 51.4898C16.3621 51.5369 16.289 51.5705 16.2115 51.5888C16.134 51.607 16.0537 51.6095 15.9752 51.596C15.8968 51.5826 15.8218 51.5535 15.7546 51.5105C15.6875 51.4674 15.6294 51.4113 15.584 51.3454C15.3032 51.0833 15.2237 50.7143 15.4038 50.5217C15.584 50.3292 15.9337 50.3773 16.2305 50.6447C16.5272 50.9122 16.5908 51.2759 16.4053 51.4684L16.4265 51.4898Z" fill="white"/>
<path d="M18.7898 52.5329C18.7103 52.7843 18.3553 52.902 17.9897 52.795C17.6241 52.688 17.3909 52.3885 17.4598 52.1318C17.5287 51.8751 17.8943 51.7574 18.2599 51.8697C18.6256 51.982 18.8587 52.2762 18.7898 52.5329Z" fill="white"/>
<path d="M21.4075 52.7256C21.4075 52.9931 21.1108 53.2124 20.7293 53.2177C20.3477 53.2231 20.0404 53.0145 20.0351 52.747C20.0298 52.4796 20.3318 52.2603 20.7187 52.255C21.1055 52.2496 21.4075 52.4636 21.4075 52.7256Z" fill="white"/>
<path d="M23.845 52.3084C23.8927 52.5705 23.6278 52.8432 23.2515 52.9074C22.8753 52.9716 22.5362 52.8165 22.4885 52.5544C22.4408 52.2923 22.711 52.0196 23.082 51.9554C23.4529 51.8912 23.7973 52.0463 23.845 52.3084Z" fill="white"/>
</g>
<defs>
<clipPath id="clip0_67_398">
<rect width="64" height="63" fill="white"/>
</clipPath>
</defs>
</svg>
